<?xml version="1.0" encoding="UTF-8" standalone="no"?>
<!-- Generator: Adobe Illustrator 25.0.0, SVG Export Plug-In . SVG Version: 6.00 Build 0)  -->

<svg
   version="1.1"
   x="0px"
   y="0px"
   viewBox="0 0 87.9 87.9"
   style="enable-background:new 0 0 87.9 87.9;"
   xml:space="preserve"
   id="svg25"
   sodipodi:docname="logo-jcbachmann.svg"
   inkscape:version="1.1.2 (0a00cf5339, 2022-02-04)"
   xmlns:inkscape="http://www.inkscape.org/namespaces/inkscape"
   xmlns:sodipodi="http://sodipodi.sourceforge.net/DTD/sodipodi-0.dtd"
   xmlns="http://www.w3.org/2000/svg"
   xmlns:svg="http://www.w3.org/2000/svg"><defs
   id="defs29" /><sodipodi:namedview
   id="namedview27"
   pagecolor="#ffffff"
   bordercolor="#666666"
   borderopacity="1.0"
   inkscape:pageshadow="2"
   inkscape:pageopacity="0.0"
   inkscape:pagecheckerboard="0"
   showgrid="false"
   inkscape:zoom="28.759954"
   inkscape:cx="47.357517"
   inkscape:cy="70.705955"
   inkscape:window-width="3840"
   inkscape:window-height="2088"
   inkscape:window-x="0"
   inkscape:window-y="0"
   inkscape:window-maximized="1"
   inkscape:current-layer="svg25" />
<style
   type="text/css"
   id="style2">
	.st0{fill-rule:evenodd;clip-rule:evenodd;fill:#233870;}
	.st1{enable-background:new    ;}
	.st2{fill:#FFFFFF;}
	.st3{opacity:0.5;fill:#FFFFFF;}
</style>
<g
   id="Layer_3">
</g>
<g
   id="JCB"
   transform="matrix(1.2446959,0,0,1.2382336,-10.579919,-10.424986)">
	<g
   id="g22">
		<g
   id="Form_1_2_">
			<g
   id="g7">
				<path
   class="st0"
   d="M 72.9,8.5 H 14.8 c -3.5,0 -6.3,2.8 -6.3,6.3 V 73 c 0,3.5 2.8,6.3 6.3,6.3 h 58.1 c 3.5,0 6.3,-2.8 6.3,-6.3 V 14.8 c 0,-3.5 -2.8,-6.3 -6.3,-6.3 z"
   id="path5" />
			</g>
		</g>
		<g
   id="g20">
			<g
   class="st1"
   id="g12">
				<path
   class="st2"
   d="m 35.3,12.4 h 3.3 v 23 c 0,3.5 -0.3,6 -0.8,7.4 -0.5,1.4 -1.4,2.5 -2.7,3.3 -1.3,0.8 -2.8,1.2 -4.5,1.2 -1.3,0 -2.7,-0.3 -4,-0.8 C 25.3,46 23.9,45 22.3,43.7 L 24.1,41 c 1.7,1.2 3.2,2.1 4.3,2.6 0.8,0.3 1.5,0.5 2.2,0.5 1,0 1.8,-0.3 2.6,-0.9 0.8,-0.6 1.3,-1.4 1.6,-2.3 0.3,-1 0.5,-2.9 0.5,-5.6 z"
   id="path10" />
			</g>
			<g
   class="st1"
   id="g16">
				<path
   class="st2"
   d="m 66.1,44.4 -2.6,2.1 C 62,44.5 60.3,43 58.2,42 c -2.1,-1 -4.3,-1.5 -6.7,-1.5 -2.7,0 -5.1,0.7 -7.4,2 -2.3,1.3 -4,3.1 -5.3,5.3 -1.2,2.2 -1.9,4.7 -1.9,7.4 0,4.2 1.4,7.6 4.2,10.4 2.8,2.8 6.3,4.2 10.5,4.2 4.7,0 8.6,-1.9 11.7,-5.6 l 2.6,2 c -1.7,2.2 -3.7,3.8 -6.2,5 C 57.2,72.4 54.5,73 51.4,73 45.6,73 41,71 37.6,67.1 34.8,63.8 33.4,59.7 33.4,55 c 0,-5 1.7,-9.2 5.1,-12.6 3.4,-3.4 7.7,-5.1 12.8,-5.1 3.1,0 5.9,0.6 8.4,1.9 2.7,1.1 4.8,2.9 6.4,5.2 z"
   id="path14" />
			</g>
			<path
   class="st3"
   d="m 51.9,50.5 2.3,2.4 c -1.4,1.3 -2.8,2.4 -4.1,3.4 0.9,0.9 2.1,2 3.5,3.5 1.1,1.2 2.1,2.2 3,3.2 H 52 l -4.4,-4.7 c -2.8,2.3 -5,3.8 -6.8,4.5 -1.8,0.7 -3.6,1 -5.5,1 -2.6,0 -4.6,-0.8 -6.2,-2.3 -1.6,-1.5 -2.3,-3.4 -2.3,-5.6 0,-1.7 0.5,-3.4 1.6,-5.1 1,-1.7 3.2,-3.9 6.4,-6.5 -1.8,-2.3 -3,-3.9 -3.5,-5 -0.5,-1.1 -0.8,-2.1 -0.8,-3.1 0,-1.7 0.6,-3.1 1.9,-4.2 1.5,-1.3 3.3,-1.9 5.5,-1.9 1.4,0 2.7,0.3 3.8,0.9 1.1,0.6 2,1.3 2.6,2.3 0.6,1 0.9,2 0.9,3.1 0,1.1 -0.4,2.4 -1.2,3.6 -0.8,1.3 -2.3,2.9 -4.6,4.9 l 5,5.4 3.3,3.4 c 1.8,-1.1 3.2,-2.2 4.2,-3.2 z m -15,-3.4 c -2.8,2.2 -4.7,3.9 -5.6,5.2 -0.9,1.3 -1.3,2.5 -1.3,3.6 0,1.3 0.5,2.4 1.6,3.4 1.1,1 2.4,1.5 3.9,1.5 1.2,0 2.3,-0.2 3.5,-0.7 1.8,-0.8 3.8,-2.1 6.1,-4 L 40,50.5 c -0.9,-1 -2,-2.1 -3.1,-3.4 z m 0.4,-4.6 c 1.6,-1.3 2.8,-2.5 3.6,-3.8 0.6,-0.9 0.9,-1.7 0.9,-2.3 0,-0.8 -0.4,-1.5 -1.1,-2 -0.7,-0.6 -1.7,-0.9 -3,-0.9 -1.2,0 -2.1,0.3 -2.9,0.9 -0.7,0.6 -1.1,1.3 -1.1,2.1 0,0.6 0.2,1.2 0.5,1.7 0.7,1.4 1.8,2.8 3.1,4.3 z"
   id="path18" />
		</g>
	</g>
</g>
</svg>
