<?xml version="1.0" encoding="UTF-8" standalone="no"?>
<!-- Generator: Adobe Illustrator 16.0.0, SVG Export Plug-In . SVG Version: 6.00 Build 0)  -->

<svg
   version="1.1"
   id="Layer_1"
   x="0px"
   y="0px"
   width="595"
   height="595"
   viewBox="0 0 595 595"
   enable-background="new 0 0 595 842"
   xml:space="preserve"
   sodipodi:docname="logo-european-brokerage-house.svg"
   inkscape:version="1.1.2 (0a00cf5339, 2022-02-04)"
   xmlns:inkscape="http://www.inkscape.org/namespaces/inkscape"
   xmlns:sodipodi="http://sodipodi.sourceforge.net/DTD/sodipodi-0.dtd"
   xmlns="http://www.w3.org/2000/svg"
   xmlns:svg="http://www.w3.org/2000/svg"
   xmlns:rdf="http://www.w3.org/1999/02/22-rdf-syntax-ns#"
   xmlns:cc="http://creativecommons.org/ns#"
   xmlns:dc="http://purl.org/dc/elements/1.1/"><metadata
   id="metadata11"><rdf:RDF><cc:Work
       rdf:about=""><dc:format>image/svg+xml</dc:format><dc:type
         rdf:resource="http://purl.org/dc/dcmitype/StillImage" /></cc:Work></rdf:RDF></metadata><defs
   id="defs9" /><sodipodi:namedview
   pagecolor="#ffffff"
   bordercolor="#666666"
   borderopacity="1"
   objecttolerance="10"
   gridtolerance="10"
   guidetolerance="10"
   inkscape:pageopacity="0"
   inkscape:pageshadow="2"
   inkscape:window-width="3840"
   inkscape:window-height="2088"
   id="namedview7"
   showgrid="false"
   inkscape:zoom="2.2"
   inkscape:cx="-2.7272727"
   inkscape:cy="202.95455"
   inkscape:window-x="0"
   inkscape:window-y="0"
   inkscape:window-maximized="1"
   inkscape:current-layer="Layer_1"
   inkscape:pagecheckerboard="0"
   height="595px" />
<rect
   style="fill:#0567d2;stroke-width:6.62234;fill-opacity:1"
   id="rect29"
   width="595"
   height="595"
   x="0"
   y="0" /><path
   fill-rule="evenodd"
   clip-rule="evenodd"
   fill="#2A559F"
   d="m 185.2845,349.504 c 4.581,0 8.016,3.666 8.016,8.247 v 16.725 c 0,4.353 -3.435,8.018 -8.016,8.018 H 72.1525 c -4.352,0 -8.016,-3.665 -8.016,-8.018 v -16.725 c 0,-4.581 3.664,-8.247 8.016,-8.247 z M 72.1525,313.995 c -4.352,0 -8.016,-3.666 -8.016,-8.019 v -17.182 c 0,-4.353 3.664,-8.019 8.016,-8.019 h 102.826 c 4.58,0 8.244,3.666 8.244,8.019 v 17.182 c 0,4.353 -3.664,8.019 -8.244,8.019 z m 113.132,-101.488 c 4.581,0 8.016,3.666 8.016,8.019 v 16.724 c 0,4.582 -3.435,8.247 -8.016,8.247 H 72.1525 c -4.352,0 -8.016,-3.666 -8.016,-8.247 v -16.724 c 0,-4.353 3.664,-8.019 8.016,-8.019 z m 156.643,82.244 c 8.016,5.04 13.741,12.142 17.405,21.076 2.29,5.27 3.206,11.455 3.206,18.099 0,22.222 -12.138,37.571 -35.038,44.902 -7.329,2.52 -15.802,3.665 -25.421,3.665 h -73.055 c -4.351,0 -8.015,-3.665 -8.015,-8.018 V 357.98 c 0,-4.582 3.664,-8.247 8.015,-8.247 h 74.887 c 8.703,0 15.344,-1.604 19.695,-4.812 3.664,-2.978 5.496,-6.872 5.496,-12.371 0,-5.498 -1.832,-9.621 -5.726,-13.058 -4.809,-4.124 -11.908,-6.186 -21.298,-6.186 h -73.055 c -4.351,0 -8.015,-3.666 -8.015,-8.248 v -15.805 c 0,-4.353 3.664,-8.019 8.015,-8.019 h 68.933 c 14.657,0 19.237,-5.727 21.527,-10.08 1.145,-2.291 1.603,-4.811 1.603,-7.56 0,-2.979 -0.458,-5.499 -1.145,-7.56 -0.688,-2.062 -1.832,-3.666 -3.206,-5.04 -3.664,-4.124 -9.161,-5.728 -16.718,-5.728 h -70.994 c -4.351,0 -8.015,-3.666 -8.015,-8.247 v -16.495 c 0,-4.353 3.664,-8.019 8.015,-8.019 h 68.933 c 18.779,0 33.436,5.269 43.741,16.037 8.474,8.477 13.054,19.473 13.054,32.76 10e-4,13.976 -4.35,25.202 -12.824,33.449 z m 56.567,-23.597 c -4.352,0 -8.016,-3.665 -8.016,-8.018 v -42.611 c 0,-4.353 3.664,-8.019 8.016,-8.019 h 17.405 c 4.58,0 8.015,3.666 8.015,8.019 v 42.611 c 0,4.353 -3.435,8.018 -8.015,8.018 z m 124.353,-58.647 h -17.405 c -4.58,0 -8.016,3.666 -8.016,8.019 v 60.251 h -98.933 c -4.352,0 -8.016,3.666 -8.016,8.019 v 85.681 c 0,4.353 3.664,8.018 8.016,8.018 h 17.405 c 4.58,0 8.015,-3.665 8.015,-8.018 v -60.48 h 73.513 v 60.48 c 0,4.353 3.436,8.018 8.016,8.018 h 17.405 c 4.352,0 8.016,-3.665 8.016,-8.018 v -153.95 c 0,-4.354 -3.664,-8.02 -8.016,-8.02 z"
   id="path2"
   style="fill:#ffffff;fill-opacity:1" />

</svg>
